<?xml version="1.0" encoding="utf-8"?>
<!-- Generator: Adobe Illustrator 24.3.0, SVG Export Plug-In . SVG Version: 6.00 Build 0)  -->
<svg version="1.1" id="Capa_1" xmlns="http://www.w3.org/2000/svg" xmlns:xlink="http://www.w3.org/1999/xlink" x="0px" y="0px"
	 viewBox="0 0 1440 400" style="enable-background:new 0 0 1440 400;" xml:space="preserve">
<style type="text/css">
	.st0{opacity:0.4;fill:url(#SVGID_1_);enable-background:new    ;}
	.st1{opacity:0.4;fill:url(#SVGID_2_);enable-background:new    ;}
	.st2{opacity:0.4;fill:url(#SVGID_3_);enable-background:new    ;}
	.st3{opacity:0.4;fill:url(#SVGID_4_);enable-background:new    ;}
</style>
<g transform="">
	
		<linearGradient id="SVGID_1_" gradientUnits="userSpaceOnUse" x1="469.6736" y1="450.3007" x2="470.6736" y2="450.3007" gradientTransform="matrix(1440 0 0 -363.7249 -676330 163990.9531)">
		<stop  offset="0" style="stop-color:#9400D3"/>
		<stop  offset="1" style="stop-color:#F08080"/>
	</linearGradient>
	<path class="st0" d="M0,355.2c96,7,192,9.7,288,8.1c96-1.6,192-11.7,288-30.2s192-25,288-19.6c96,5.4,192,5.1,288-1
		c96-6.1,192-18,288-35.7V101.2c-96,1.2-192,1.3-288,0.3c-96-1-192-6.1-288-15.2s-192-12.2-288-9.1s-192-2.6-288-17S96,43.1,0,52.5
		V355.2z	">
<animate  accumulate="none" additive="replace" attributeName="d" begin="0s" calcMode="linear" calcmod="spline" dur="10s" fill="remove" keySplines="0.2 0 0.2 1;0.2 0 0.2 1;0.2 0 0.2 1" keyTimes="0;0.333;0.667;1" repeatCount="indefinite" restart="always" values="M0 0M 0 339.1093180388041Q 144 363.1181046993646 288 358.7398964970856T 576 310.78513432367487T 864 322.8830546806909T 1152 316.65408857176055T 1440 264.7256777480295L 1440 103.01302533720416Q 1296 98.77410929803989 1152 97.2620078572843T 864 69.6347118828799T 576 83.70896820349128T 288 51.3111066133091T 0 51.90574284192395Z;M0 0M 0 368.08618847085927Q 144 367.75545646998756 288 366.8960532991175T 576 350.9377885594639T 864 305.92083568067005T 1152 309.0453247296068T 1440 286.36624939056605L 1440 99.79067392029518Q 1296 106.39600550674875 1152 104.90545429258752T 864 99.61892057573873T 576 71.9644095628615T 288 67.21964178197658T 0 52.91356220006735Z;M0 0M 0 339.4797920350818Q 144 344.862766283258 288 335.726190593708T 576 310.4403081293862T 864 317.42296299267275T 1152 312.42430751508635T 1440 303.80581873877884L 1440 124.34847195055274Q 1296 114.8384002022468 1152 108.72618999168589T 864 94.0651467671623T 576 60.79965197127284T 288 65.68238532141166T 0 44.20785689719561Z;M0 0M 0 339.1093180388041Q 144 363.1181046993646 288 358.7398964970856T 576 310.78513432367487T 864 322.8830546806909T 1152 316.65408857176055T 1440 264.7256777480295L 1440 103.01302533720416Q 1296 98.77410929803989 1152 97.2620078572843T 864 69.6347118828799T 576 83.70896820349128T 288 51.3111066133091T 0 51.90574284192395Z">
			</animate>
	</path>
	
		<linearGradient id="SVGID_2_" gradientUnits="userSpaceOnUse" x1="469.6736" y1="450.3185" x2="470.6736" y2="450.3185" gradientTransform="matrix(1440 0 0 -363.477 -676330 163879.125)">
		<stop  offset="0" style="stop-color:#9400D3"/>
		<stop  offset="1" style="stop-color:#F08080"/>
	</linearGradient>
	<path class="st1" d="M0,363.5c96-4.8,192-8.6,288-11.4s192-12.5,288-29.1c96-16.6,192-22,288-16.2c96,5.8,192,11.6,288,17.4
		s192-5.4,288-33.4V104.1c-96-6.7-192-11.6-288-14.7c-96-3.1-192-4.6-288-4.5s-192-2.6-288-8.3S384,64.2,288,56.3S96,41,0,34V363.5z
			">
<animate  accumulate="none" additive="replace" attributeName="d" begin="-2.5s" calcMode="linear" calcmod="spline" dur="10s" fill="remove" keySplines="0.2 0 0.2 1;0.2 0 0.2 1;0.2 0 0.2 1" keyTimes="0;0.333;0.667;1" repeatCount="indefinite" restart="always" values="M0 0M 0 357.89611736127074Q 144 341.1112672111209 288 331.20318804377246T 576 323.88972095704725T 864 338.5791225006463T 1152 278.4596548918078T 1440 286.3255256355017L 1440 90.84787648574213Q 1296 122.00560699145656 1152 113.16543199307735T 864 73.37639337802054T 576 71.3400242448649T 288 76.79389618057317T 0 49.87272366923129Z;M0 0M 0 369.22939381924397Q 144 353.6482977664671 288 350.62468311732465T 576 314.3244972639349T 864 306.1645732792536T 1152 326.010191085593T 1440 291.57948272411403L 1440 99.2859657063837Q 1296 87.59923091724625 1152 81.93757552653487T 864 93.73940287274186T 576 79.30910027070863T 288 54.24377583840464T 0 32.112803858765375Z;M0 0M 0 350.38369755377954Q 144 362.32788622307316 288 355.4059234201716T 576 342.5680238143951T 864 307.93555212708463T 1152 319.6123292148256T 1440 288.44638616363727L 1440 114.89976891404793Q 1296 108.61378073310577 1152 106.24921018271473T 864 64.76324850274672T 576 70.38525550290113T 288 60.950703002821236T 0 38.18967113145355Z;M0 0M 0 357.89611736127074Q 144 341.1112672111209 288 331.20318804377246T 576 323.88972095704725T 864 338.5791225006463T 1152 278.4596548918078T 1440 286.3255256355017L 1440 90.84787648574213Q 1296 122.00560699145656 1152 113.16543199307735T 864 73.37639337802054T 576 71.3400242448649T 288 76.79389618057317T 0 49.87272366923129Z">
			</animate>
	</path>
	
		<linearGradient id="SVGID_3_" gradientUnits="userSpaceOnUse" x1="469.6736" y1="450.2975" x2="470.6736" y2="450.2975" gradientTransform="matrix(1440 0 0 -344.469 -676330 155306.5156)">
		<stop  offset="0" style="stop-color:#9400D3"/>
		<stop  offset="1" style="stop-color:#F08080"/>
	</linearGradient>
	<path class="st2" d="M0,344.5c96-4.3,192-8.6,288-12.8s192-5,288-2.4s192-0.9,288-10.6s192-8.2,288,4.6c96,12.7,192-4.8,288-52.7
		V126.9c-96-21.6-192-35.4-288-41.4S960,78,864,81s-192,2-288-3.1c-96-5.1-192-10.4-288-16.2S96,49.2,0,41.5V344.5z	">
<animate  accumulate="none" additive="replace" attributeName="d" begin="-5s" calcMode="linear" calcmod="spline" dur="10s" fill="remove" keySplines="0.2 0 0.2 1;0.2 0 0.2 1;0.2 0 0.2 1" keyTimes="0;0.333;0.667;1" repeatCount="indefinite" restart="always" values="M0 0M 0 337.52084582345435Q 144 356.92016308869216 288 348.52880768933585T 576 350.1442323995224T 864 328.6820118923992T 1152 303.5514104246024T 1440 288.15326718730995L 1440 98.51239590640546Q 1296 87.23055552392934 1152 80.81487518270079T 864 98.94115966933752T 576 89.72904986334036T 288 55.63904603710346T 0 42.706821814462074Z;M0 0M 0 336.5818447521159Q 144 350.34857769081395 288 342.089791199656T 576 330.06366696480603T 864 302.0802054990233T 1152 324.1017218993268T 1440 308.8765220391308L 1440 126.30204646597949Q 1296 89.62325619613623 1152 88.72944532468895T 864 83.74754262050139T 576 82.49008271479444T 288 53.41086827686632T 0 30.379977387815686Z;M0 0M 0 344.8654213914157Q 144 336.92462686048106 288 330.7089251441115T 576 328.07788822849466T 864 318.1033638575685T 1152 324.3678599293547T 1440 269.56921475469636L 1440 128.5132587013487Q 1296 94.89017892969063 1152 85.74901254769661T 864 79.95858546103952T 576 77.22304176401845T 288 62.05078010398582T 0 41.45046228238189Z;M0 0M 0 337.52084582345435Q 144 356.92016308869216 288 348.52880768933585T 576 350.1442323995224T 864 328.6820118923992T 1152 303.5514104246024T 1440 288.15326718730995L 1440 98.51239590640546Q 1296 87.23055552392934 1152 80.81487518270079T 864 98.94115966933752T 576 89.72904986334036T 288 55.63904603710346T 0 42.706821814462074Z">
			</animate>
	</path>
	
		<linearGradient id="SVGID_4_" gradientUnits="userSpaceOnUse" x1="469.6736" y1="450.3272" x2="470.6736" y2="450.3272" gradientTransform="matrix(1440 0 0 -358.6027 -676330 161680.8125)">
		<stop  offset="0" style="stop-color:#9400D3"/>
		<stop  offset="1" style="stop-color:#F08080"/>
	</linearGradient>
	<path class="st3" d="M0,345.6c96,9.3,192,13.6,288,12.9c96-0.7,192-7.1,288-19.1c96-12,192-22.5,288-31.7c96-9.1,192-16.2,288-21.2
		s192-4.1,288,2.9V103.4c-96-7.4-192-11.4-288-11.8c-96-0.5-192-6.2-288-17.3S672,68,576,88.6s-192,11-288-28.7S96,15.3,0,45.4
		V345.6z	">
<animate  accumulate="none" additive="replace" attributeName="d" begin="-7.5s" calcMode="linear" calcmod="spline" dur="10s" fill="remove" keySplines="0.2 0 0.2 1;0.2 0 0.2 1;0.2 0 0.2 1" keyTimes="0;0.333;0.667;1" repeatCount="indefinite" restart="always" values="M0 0M 0 342.9473574726254Q 144 363.9264101576829 288 363.7476831775365T 576 341.98023841864784T 864 307.3922277919027T 1152 288.50680099737895T 1440 289.9383745173343L 1440 100.30359488550174Q 1296 85.0463691180595 1152 84.28795185477088T 864 71.49776897073141T 576 88.31935637844084T 288 64.16914176328899T 0 51.219728531475866Z;M0 0M 0 339.5269539931254Q 144 339.1337662712706 288 338.2622055993318T 576 321.094313258089T 864 318.2552585141048T 1152 301.87409901972865T 1440 298.97129302186715L 1440 127.63906746509272Q 1296 79.2723647035893 1152 78.43452991764721T 864 59.543324862021976T 576 57.116121812030485T 288 77.51878796526287T 0 41.985537109793526Z;M0 0M 0 356.5048420065953Q 144 341.7529152027714 288 337.02043952654543T 576 329.07653532315084T 864 309.5194609156358T 1152 278.6160404253201T 1440 287.41354483369724L 1440 116.1275069915114Q 1296 121.99516264623551 1152 121.53137648879917T 864 85.66840425298312T 576 89.51992247508649T 288 41.86059182755577T 0 21.408919476301037Z;M0 0M 0 342.9473574726254Q 144 363.9264101576829 288 363.7476831775365T 576 341.98023841864784T 864 307.3922277919027T 1152 288.50680099737895T 1440 289.9383745173343L 1440 100.30359488550174Q 1296 85.0463691180595 1152 84.28795185477088T 864 71.49776897073141T 576 88.31935637844084T 288 64.16914176328899T 0 51.219728531475866Z">
			</animate>
	</path>
</g>
</svg>
